<svg xmlns="http://www.w3.org/2000/svg" viewBox="0 0 150 114">
<!-- SVG created with Arrow, by QuiverAI (https://quiver.ai) -->
  <style type="text/css">.cls-1 {fill:#010101;}
.cls-2 {fill:#E40521;}</style>
  <path class="cls-1" d="m57.8 20.2-8.2-8.2-1.6-0.9c-0.8-0.4-2.1-0.4-3-0.1l-22.4 9.6c-1.3 0.6-3 2.4-3.2 3.7l-1.7 8.8c-0.1 0.7-0.1 1.2 0.2 1.7l9.1 15.1 2.6 1.8c0.5 0.3 1.2 0.4 1.6 0.3 0.1 0 1 1 4.7 3.7 0.3 0.2 0.6 0.3 1-0.1l0.8-1.2-0.6-1.3c-0.2-1.1 2.2-2.7 3.1-3.1l3.8-1.3c-0.2-0.9-0.2-2.3 0.1-3.3l0.5-1.3-15 4.4-7.9-12.6c-0.7-1.3-0.5-2.7 0.7-3.3 1.9-0.9 19.9-8.5 20.6-8.7 1-0.3 2.4-0.8 3.7 0.9l4.6 6.9 2.3-1.2 1.9-5.1 2.3-3.5v-1.5-0.2z"/>
  <path class="cls-1" d="m44.8 49.8c-0.4 0.2-1.1 0.5-1.4 0.5-0.9 0.1-2.5 0.6-2.8 1.1-0.4 0.5-1.6 0.6-2.2 1.4l-0.4 1.1-0.1 1.1-0.8 1.4-0.4 0.4c-0.8-0.1-2.2 1.4-2.2 1.4 0.3 0.4 2.4 1.4 5 0.6 1.4-3.5 4.3-6.3 6.1-7.1-0.2-0.2-0.7-0.9-0.8-1.9z"/>
  <path class="cls-1" d="m23.1 46.2-1.3-0.1c-0.4-0.3-0.9-0.5-1.6-0.4-0.4 0-1.2 0.1-1.5-0.3-0.3-0.5-2.6-0.3-2.9-1.1l0.3-0.2c-0.8-0.2-2.2-0.5-2.3-1.3-0.1-1.1 1.5-1.6 1.6-1.3 0.1 0.1-2 1.1-0.4 1.7 0.7 0.4 2.5 0.6 2.4 0.4-0.2-0.2-0.2 0.5 0.3 0.7l1.3 0.8c0.8 0 1.9 0.3 2.3 0.3l1.3 0.3-4.9-8s-9-4.7-11-4.9c-0.9-0.1-1.1 0.1-0.7 0.6 2.2 2.3 6.2 5.2 6.2 5.2l-0.3 0.4c0.2 0.9 2.2 0.9 2.1 1.3-0.6 0.1-2.8-0.6-2.6-0.9l0.2-0.4c-1.1-0.6-6-4.6-8-5.5-0.8-0.4-2.9 0.4-2.2 1.3 2.7 3.1 4.2 4.8 8.4 6.9l-0.1 0.5 0.4 0.1c-1.4 0.1-3.4-0.2-4.5 0.2-0.2 0.1-0.4 0.5 0 0.9 1.7 1.8 3.4 1.8 8.4 2.9l0.1 0.2c-1.5 0.3-3.2 1.6-3 1.9 0.5 0.8 1.9 1.2 3.9 1 1.1-0.2 3.1-0.8 3-0.6-0.3 0.4-1.9 1.3-1.2 1.7 0.9 0.3 0.9 0.4 1.8 0.4 0.9-0.1 3.1-0.9 3.1-0.9 0 1.2 0.2 2.1 0.7 2l1.7-0.9 1.3-1.4c-0.2-0.8-2-3.1-2.3-3.5z"/>
  <path class="cls-1" d="m22.5 58.7-1.1 1.2-4.6 2.7 0.2 1.4 1.1 1.7 0.9 0.8 3-0.8 3.6-3.3c-1.3-0.9-3-3.5-3.1-3.7z"/>
  <path class="cls-1" d="m9.6 71.3-1.5 0.6-0.8 1.2-2.7 3.3v0.1 0.1l0.6 1.8 1.7 1.5h0.8l1.2-0.6 2.5-2.9 1.8-1.8v-0.1-0.1-0.1l-2.1-1.9-1-1.4-0.5 0.3z"/>
  <path class="cls-1" d="m24.9 73.8-2.3 0.7-1.7 0.8 0.1 1.8 2.2 1.9 1 1.7 0.7 1 1.3-0.9 2.7-1.9-2.3-2.9-1.7-2.2z"/>
  <path class="cls-1" d="m29.9 65-1.5 0.4-0.7 0.6-1.3 1.4c0 1.1 0.2 1.8 1.1 2.3 0.9 0.8 1.7 1.1 2.4 1.1h1l1.2-0.6 1-0.9c0-0.4-1.5-0.9-1.4-1.7 0.4-0.9 1.4-1.5 1.4-1.5l-2.2-1.2-1 0.1z"/>
  <path class="cls-1" d="m74.1 1.5c-0.7 0.2-1.1 0.8-1.7 1.6l-15.3 21.9-1.9 4.8c0.6-0.1 1.5-0.3 2.7-0.3h8.8c0.7-0.5 0.9-1.1 0.8-2.6-0.1-0.7-1.8-1.3-2.1-0.9-0.2 0.2 2.1-1.4 2.1-2.4-0.6-0.5-3.1 0.9-3.1 0.6l1.2-1.5 2-3.3-0.1-0.4c2.4-4 5.9-10.1 6.6-12.1 1.4-3 0.7-5.7 0-5.4z"/>
  <path class="cls-1" d="m75.9 22.4-3.9 2.2 3.6-4.1c1.5-2.1 1-4.5 0-4l-2 1.6 1.9-4.5c0.9-2.6 0.9-5-0.3-5.7l-7.7 12-1.3 3 3.9-1.4-2 1.4c1.3 1.3-0.6 2.7-0.7 2.8 2 0.9 0.8 3.2 0.5 3.7h2.5c1.2 0 2.2 0.2 3.2 0.8l1.4-1.8c0.9-1.3 0.4-1.7-0.4-1.3l-2.2 0.8 2.7-2.3c1.8-1.7 1.8-2.7 0.8-3.5v0.3z"/>
  <path class="cls-1" d="m45.2 25.4c-0.4-0.4-1.1-0.6-1.6-0.4-1.6 0.2-20 8.1-20 8.2l6 9.3 0.8 1.1 16.1-5.9c0.7-1.8 2.4-4.3 3.7-5.1l-5-7.2zm-15.1 14.1c-0.7 0.4-1.1-1.9 1-2.5 1.3 0 0.1 2.1-1 2.5zm1-4.4c-1.5-2.5 0.9-4.4 2.5-1.5 1 2.1-1.2 3.5-2.5 1.5zm2.3 3.6c3.5 2.1 7.2-0.3 8.3-3.6 0.5-1-0.6 4.8-6.2 4.8-1.6-0.2-2.5-1.3-2.1-1.2zm6.1-4.8c-1.9-0.3-3.1-4.4-0.9-4.4 1.9 0.4 3.1 4.4 0.9 4.4zm4.7-0.6c-0.7-0.1-2.2-0.9-0.8-1.8 1.2-1 3 1.2 0.8 1.8z"/>
  <path class="cls-1" d="m30.5 44.5-0.9 3.9 15-4.5 0.8-2.3c-0.9-0.4-0.8-1.6 0.2-1.7l0.3-0.9-15.4 5.5zm2.1 2.4c-0.5-0.3-1.1-1.5 0.3-2.3l3.6-1.1c1.2 0.6 1.4 1.9 0.1 2.2l-4 1.2zm6.8-3.5c-1 0-1-1.3 0-1.3 0.8 0.1 0.7 1.3 0 1.3zm0.7 1.5c-0.9 0-0.9-1.3 0-1.3 0.9 0.1 0.8 1.3 0 1.3zm2.1-2.3c-0.8-0.5-0.6-1.4 0.3-1.2s0.7 1.5-0.3 1.2zm0.7 1.5c-0.9-0.2-0.7-1.2 0.2-1.1 0.9 0.2 0.6 1.4-0.2 1.1z"/>
  <path class="cls-1" d="m66.2 51.9c2.8 0.9 4.2 3.2 3.3 6.9l-3 9.2c-1.4 3.6-5.6 7.6-10.9 7.7h-11.5c-3.5 0-7.5-2.8-6.4-8.1l3.2-9.4c1.1-2.8 3.7-5.3 7-6.3-1.8-1.1-3.5-3.3-2.5-6.9l2.2-6.9c1.3-3.7 5.4-7.3 10.4-7.3h12.4c3.8 0 6.5 3.3 5 8.6l-2 6c-1.2 2.7-4 5.4-7.2 6.5zm-8.2 4h-2.6c-1.4 0-3.5 1.2-4.5 3.3l-2.7 7.4c-0.6 3 1.3 3.4 2.8 3.4 2.9 0.1 4.5-1.6 5.5-4l2.6-7.4c0.5-1.8-0.6-2.7-1.1-2.7zm-1-7h2.2c1.3 0 3.2-1.4 3.8-3.2l1.9-5.7c0.6-1.9-0.5-3.1-1.5-3.3h-2.5c-1.4 0-3.3 1.4-4 3.7l-1.8 5.2c-0.5 2.5 0.9 3.3 1.9 3.3z"/>
  <path class="cls-1" d="m106.2 44.9-8.2 21.5c-1.6 3.7-6.5 8.4-12.6 8.5h-7c-4.3-0.1-8-3.8-7.4-9.9l7-21.6c1.4-4.8 7.4-12.2 14.6-12.2h6.3c6.1-0.2 9.7 4.7 7.3 12.5v1.2zm-12.6-6c-2-0.2-4.2 1.5-5 4.2l-7.4 20.9c-1.1 3.6 1.8 5.1 4.3 3.4 1.1-0.9 2-2 2.7-4l7.4-20c1-2.4 0.3-4.2-2-4.5z"/>
  <path class="cls-1" d="m134 50.4c-4-0.3-5.8 1-7.4 2.6h0.1l0.2 0.1-0.3 0.4c-0.2-1.4-1.7-3-3.7-3-2.9 0-3.9 0.5-6.5 2.6l0.6-2.5h-7.1l-0.5 0.9-8.2 22.2v0.2h7.8l5.5-15c1-1.8 3.5-3.8 3.9-2 0.2 0.7-1.5 5.1-5.8 17h7.9l5.5-15c1.1-1.8 3.2-3.5 4.1-2.3 0.5 0.8-0.1 1.5-5.2 17.1v0.2h7.8l5.4-16c1-4.2-0.2-6.9-4.1-7.5z"/>
  <path class="cls-1" d="m146.6 65.5h-3c-1.6-0.1-2.7 0.9-3.2 1.9l-1.2 3.4c-0.6 1.8 0.4 3.1 1.9 3.1h4.1c1.2 0 2.3-1.3 2.5-1.8l0.9-3.2c0.5-1.8-0.2-3.4-2-3.4z"/>
  <path class="cls-2" d="m118.4 77.2-2 0.4 1-2c0.2-0.6-0.4-1.2-0.9-1.1-0.9 0-1.5 0.5-2 1.5l-1.1 2-4 0.6c-0.8 0.6-2.2 2.9-0.8 3.4l2.8-0.5c-0.9 1.6-3.4 7.4-4 9.9-0.5-0.5-2.9 4-4.8 3.8-2-0.2 2.5-7.1 3.3-9.8 0.7-1.7-1-3-2.3-2.3-1.6 0.5-2.6 1.8-4.7 3.9l0.7-2.4c0.3-1.5-2.1-1.4-3 0.4l-3.5 8.5-0.6-0.5c-0.4-0.4-3.4 4.2-6.6 4.4-1.3 0.2-2.4-0.5-1.8-1.5 1.8-1.8 5.1-3.5 5.4-3.9 0.5-1.8-1-2.1-3.9-0.8 0.9-1.5 2.9-3.1 3.6-3.1-0.3 1.9 2.8 1.3 3.3-1.6 0-1.1-1.1-2-2.9-1.6-1.7 0.3-7.1 2.7-7.2 6.1 0 1.9 1 2.5 1 2.5-0.3-0.1-0.8 0.4-1 0.6-1.3 0.3-4.4 3.3-6.5 5.8l5.5-12.3c1-1 0-2-1.9-1.2l-0.9 0.6c-3.2-1.5-12.2 5.5-12.2 11.9 0 2.5 2.5 4.8 7.5-0.5l0.2-0.3-2.2 4.8c-3.3 3.2-4.7 5.6-4.7 6.7-0.2 1.6 0.5 3 1.8 3 1.5 0.1 1.7-0.5 2.6-2.1 1.9-3.5 3.5-7.1 9.5-12.1v-0.1c1.3 2.2 6 2.7 10.3-0.9-0.3 0.5 2 2 2.6 0.5 2.4-4.2 3.7-6.3 8.4-11.3h0.1l-0.1 0.1c-4.3 8.4-3.7 10.7-0.8 11.2 2.4 0.2 3.8-1 5.4-2.9 0.4 2.7 3.5 3.1 5.6 1.6 1.3-1 3.1-2.6 3.3-3.4 0.2-4-1-2.6-1.4-1.8-0.8 1-2.9 3.2-3.9 3-0.7-0.2-1.1-0.8 0.9-5.4l3.4-8.3 3.5-0.6c3-0.7 1.7-2.7 0-2.7v-0.2zm-49.3 21.8c-0.5-1.8 3.3-8.1 8.4-10-1.6 3.5-7 9.9-8.4 10zm-1.5-23c-0.2 0.1-0.6 0.6-0.6 0.6-0.5-0.7-3.6 2.3-6.5 5.8-3 3.6-7.5 9.7-7.5 11 0 1.2 2.1 1.5 1.5 2.3-1.4 2.4-3.4 6.4-4.4 8.8-0.7 1.5-3 0.6-3.1-0.9 0.1-2.2 3.6-7.5 3.6-7.5l-2.7 0.6c-1.5-0.3-1-1.8 0-2.5 1.5-0.8 4.2-1.1 5.2-1.1 0.9-0.4 12.5-16.2 14.5-17.1z"/>
  <path class="cls-2" d="m51.1 93.4 8-0.9 4.9-0.1-0.5 2.6-8.9 0.7-3.5-0.3v-2z"/>
  <path class="cls-2" d="m67.6 76.1 2.3-0.1 0.2 0.9-7.5 24.6c-0.7 1.6-1.7 2.2-3.5 2.6-0.5 0-0.9-0.4-0.6-1.1l7.5-22.2c-4.1 4.3-8.6 10.6-9.4 11.8l-3.7 1.1 1.1-1.3c2.4-4 11.7-15 13.6-16.3z"/>
</svg>
